<?xml version="1.0" encoding="utf-8"?>
<!-- Generator: Adobe Illustrator 21.1.0, SVG Export Plug-In . SVG Version: 6.00 Build 0)  -->
<svg version="1.1" id="Capa_1" xmlns="http://www.w3.org/2000/svg" xmlns:xlink="http://www.w3.org/1999/xlink" x="0px" y="0px"
	 viewBox="0 0 60 60" style="enable-background:new 0 0 60 60;" xml:space="preserve">
<style type="text/css">
	.st0{fill:#A4A4A4;}
</style>
<g>
	<path class="st0" d="M48,14c-1.3,0-2.5,0.3-3.5,0.9c-1-0.6-2.2-0.9-3.5-0.9c-3.9,0-7,3.1-7,7s3.1,7,7,7c1.3,0,2.5-0.3,3.5-0.9
		c1,0.6,2.2,0.9,3.5,0.9c3.9,0,7-3.1,7-7S51.9,14,48,14z M46,21c0,1.4-0.6,2.7-1.5,3.6C43.6,23.7,43,22.4,43,21s0.6-2.7,1.5-3.6
		C45.4,18.3,46,19.6,46,21z M36,21c0-2.8,2.2-5,5-5c0.6,0,1.2,0.1,1.8,0.3C41.7,17.6,41,19.2,41,21s0.7,3.4,1.8,4.7
		C42.2,25.9,41.6,26,41,26C38.2,26,36,23.8,36,21z M48,26c-0.6,0-1.2-0.1-1.8-0.3c1.1-1.2,1.8-2.9,1.8-4.7s-0.7-3.4-1.8-4.7
		c0.6-0.2,1.2-0.3,1.8-0.3c2.8,0,5,2.2,5,5S50.8,26,48,26z"/>
	<path class="st0" d="M55.8,8H4.2C1.9,8,0,9.9,0,12.2v35.6C0,50.1,1.9,52,4.2,52h51.6c2.3,0,4.2-1.9,4.2-4.2V12.2
		C60,9.9,58.1,8,55.8,8z M58,47.8c0,1.2-1,2.2-2.2,2.2H4.2C3,50,2,49,2,47.8V12.2C2,11,3,10,4.2,10h51.6c1.2,0,2.2,1,2.2,2.2V47.8z"
		/>
	<path class="st0" d="M6,18h9c0.6,0,1-0.4,1-1s-0.4-1-1-1H6c-0.6,0-1,0.4-1,1S5.4,18,6,18z"/>
	<path class="st0" d="M28,16h-9c-0.6,0-1,0.4-1,1s0.4,1,1,1h9c0.6,0,1-0.4,1-1S28.6,16,28,16z"/>
	<path class="st0" d="M6,23h1c0.6,0,1-0.4,1-1s-0.4-1-1-1H6c-0.6,0-1,0.4-1,1S5.4,23,6,23z"/>
	<path class="st0" d="M11,21c-0.6,0-1,0.4-1,1s0.4,1,1,1h2c0.6,0,1-0.4,1-1s-0.4-1-1-1H11z"/>
	<path class="st0" d="M19,22c0-0.6-0.4-1-1-1h-1c-0.6,0-1,0.4-1,1s0.4,1,1,1h1C18.6,23,19,22.6,19,22z"/>
	<path class="st0" d="M24,23c0.6,0,1-0.4,1-1s-0.4-1-1-1h-2c-0.6,0-1,0.4-1,1s0.4,1,1,1H24z"/>
	<path class="st0" d="M27.3,21.3C27.1,21.5,27,21.7,27,22s0.1,0.5,0.3,0.7c0.2,0.2,0.4,0.3,0.7,0.3s0.5-0.1,0.7-0.3
		c0.2-0.2,0.3-0.4,0.3-0.7s-0.1-0.5-0.3-0.7C28.3,20.9,27.7,20.9,27.3,21.3z"/>
	<path class="st0" d="M5,45h11v-8H5V45z M7,39h7v4H7V39z"/>
	<path class="st0" d="M18,45h11v-8H18V45z M20,39h7v4h-7V39z"/>
	<path class="st0" d="M31,45h11v-8H31V45z M33,39h7v4h-7V39z"/>
	<path class="st0" d="M44,45h11v-8H44V45z M46,39h7v4h-7V39z"/>
</g>
</svg>
