<?xml version="1.0" encoding="utf-8"?>
<!-- Generator: Adobe Illustrator 21.1.0, SVG Export Plug-In . SVG Version: 6.00 Build 0)  -->
<svg version="1.1" id="Capa_1" xmlns="http://www.w3.org/2000/svg" xmlns:xlink="http://www.w3.org/1999/xlink" x="0px" y="0px"
	 viewBox="0 0 60 60" style="enable-background:new 0 0 60 60;" xml:space="preserve">
<style type="text/css">
	.st0{fill:#FFFFFF;}
</style>
<g>
	<path class="st0" d="M30,52c12.1,0,22-9.9,22-22S42.1,8,30,8S8,17.9,8,30S17.9,52,30,52z M30,10c11,0,20,9,20,20s-9,20-20,20
		s-20-9-20-20S19,10,30,10z"/>
	<path class="st0" d="M30,15c0.6,0,1-0.4,1-1v-2c0-0.6-0.4-1-1-1s-1,0.4-1,1v2C29,14.6,29.4,15,30,15z"/>
	<path class="st0" d="M30,45c-0.6,0-1,0.4-1,1v2c0,0.6,0.4,1,1,1s1-0.4,1-1v-2C31,45.4,30.5,45,30,45z"/>
	<path class="st0" d="M46,31h2c0.6,0,1-0.4,1-1s-0.4-1-1-1h-2c-0.6,0-1,0.4-1,1S45.4,31,46,31z"/>
	<path class="st0" d="M14,29h-2c-0.6,0-1,0.4-1,1s0.4,1,1,1h2c0.6,0,1-0.4,1-1S14.5,29,14,29z"/>
	<path class="st0" d="M19,41c0.3,0,0.5-0.1,0.7-0.3l8.3-8.3c0.6,0.4,1.3,0.6,2,0.6c2.2,0,4-1.8,4-4c0-1.9-1.3-3.4-3-3.9V20
		c0-0.6-0.4-1-1-1s-1,0.4-1,1v5.1c-1.7,0.4-3,2-3,3.9c0,0.7,0.2,1.4,0.6,2l-8.3,8.3c-0.4,0.4-0.4,1,0,1.4C18.5,40.9,18.7,41,19,41z
		 M30,27c1.1,0,2,0.9,2,2s-0.9,2-2,2s-2-0.9-2-2S28.9,27,30,27z"/>
	<path class="st0" d="M10.1,10H18c0.6,0,1-0.4,1-1s-0.4-1-1-1h-5.3c4.9-3.9,11-6,17.3-6c15.4,0,28,12.6,28,28c0,0.6,0.4,1,1,1
		s1-0.4,1-1C60,13.5,46.5,0,30,0c-7,0-13.6,2.4-19,6.8V1c0-0.6-0.4-1-1-1S9,0.4,9,1v9h0.9C9.9,10,10,10,10.1,10z"/>
	<path class="st0" d="M4.8,42.2c-0.3-0.5-0.8-0.7-1.3-0.5C3,42,2.8,42.6,3,43.1c0.2,0.4,0.5,0.6,0.9,0.6c0.1,0,0.3,0,0.4-0.1
		C4.8,43.3,5,42.7,4.8,42.2z"/>
	<path class="st0" d="M7.9,47.1c-0.3-0.4-1-0.5-1.4-0.2s-0.5,1-0.2,1.4c0.2,0.3,0.5,0.4,0.8,0.4c0.2,0,0.4-0.1,0.6-0.2
		C8.1,48.2,8.2,47.6,7.9,47.1z"/>
	<path class="st0" d="M6.2,44.8c-0.3-0.5-0.9-0.6-1.4-0.3c-0.5,0.3-0.6,0.9-0.3,1.4c0.2,0.3,0.5,0.5,0.8,0.5c0.2,0,0.4,0,0.5-0.2
		C6.4,45.8,6.5,45.2,6.2,44.8z"/>
	<path class="st0" d="M8.3,49.3c-0.4,0.4-0.4,1,0,1.4C8.5,50.9,8.8,51,9,51c0.3,0,0.5-0.1,0.7-0.3c0.4-0.4,0.4-1,0-1.4
		C9.4,48.9,8.7,48.9,8.3,49.3z"/>
	<path class="st0" d="M10.4,51.4c-0.4,0.4-0.3,1,0.1,1.4c0.2,0.2,0.4,0.2,0.6,0.2c0.3,0,0.6-0.1,0.8-0.4c0.4-0.4,0.3-1-0.1-1.4
		C11.4,51,10.8,51,10.4,51.4z"/>
	<path class="st0" d="M2.1,38c0.5-0.1,0.9-0.7,0.7-1.2c-0.1-0.5-0.7-0.9-1.2-0.7c-0.5,0.1-0.9,0.7-0.7,1.2C1,37.7,1.4,38,1.9,38
		C1.9,38,2,38,2.1,38z"/>
	<path class="st0" d="M1.4,35.1C2,35,2.3,34.5,2.3,34S1.7,33,1.1,33.1c-0.6,0.1-0.9,0.6-0.9,1.1c0.1,0.5,0.5,0.9,1,0.9
		C1.3,35.1,1.4,35.1,1.4,35.1z"/>
	<path class="st0" d="M3.7,39.6C3.5,39,2.9,38.8,2.4,39c-0.5,0.2-0.8,0.8-0.6,1.3c0.1,0.4,0.5,0.7,0.9,0.7c0.1,0,0.2,0,0.3-0.1
		C3.6,40.7,3.9,40.1,3.7,39.6z"/>
	<path class="st0" d="M1,32.1C1,32.1,1,32.1,1,32.1c0.6,0,1-0.5,1-1c0-0.5-0.5-1-1-1s-1,0.5-1,1C0,31.7,0.5,32.1,1,32.1z"/>
	<path class="st0" d="M12.8,53.3c-0.3,0.5-0.2,1.1,0.3,1.4c0.2,0.1,0.4,0.2,0.6,0.2c0.3,0,0.6-0.1,0.8-0.4c0.3-0.5,0.2-1.1-0.3-1.4
		C13.7,52.8,13.1,52.9,12.8,53.3z"/>
	<path class="st0" d="M48.9,50.6L48.9,50.6c-0.4,0.4-0.4,1-0.1,1.4c0.2,0.2,0.5,0.3,0.7,0.3c0.2,0,0.5-0.1,0.7-0.3
		c0.4-0.4,0.4-1,0.1-1.4C50,50.3,49.3,50.2,48.9,50.6z"/>
	<path class="st0" d="M51,48.5c-0.4,0.4-0.3,1,0.1,1.4c0.2,0.2,0.4,0.3,0.7,0.3c0.3,0,0.5-0.1,0.8-0.3c0.4-0.4,0.3-1-0.1-1.4
		C51.9,48.1,51.3,48.1,51,48.5z"/>
	<path class="st0" d="M52.8,46.3c-0.3,0.5-0.2,1.1,0.2,1.4c0.2,0.1,0.4,0.2,0.6,0.2c0.3,0,0.6-0.1,0.8-0.4c0.3-0.4,0.2-1.1-0.2-1.4
		C53.7,45.7,53.1,45.8,52.8,46.3z"/>
	<path class="st0" d="M46.7,52.5c-0.4,0.3-0.5,1-0.2,1.4c0.2,0.3,0.5,0.4,0.8,0.4c0.2,0,0.4-0.1,0.6-0.2c0.5-0.3,0.5-1,0.2-1.4
		C47.8,52.2,47.1,52.1,46.7,52.5z"/>
	<path class="st0" d="M44.3,54.1c-0.5,0.3-0.6,0.9-0.3,1.4c0.2,0.3,0.5,0.5,0.9,0.5c0.2,0,0.3,0,0.5-0.1c0.5-0.3,0.6-0.9,0.3-1.4
		C45.4,53.9,44.8,53.8,44.3,54.1z"/>
	<path class="st0" d="M55.7,43.5c-0.5-0.3-1.1-0.1-1.4,0.4h0c-0.3,0.5-0.1,1.1,0.4,1.4c0.2,0.1,0.3,0.1,0.5,0.1
		c0.3,0,0.7-0.2,0.9-0.5C56.3,44.3,56.2,43.7,55.7,43.5z"/>
	<path class="st0" d="M58.9,32c-0.5-0.1-1,0.3-1.1,0.9c-0.1,0.5,0.3,1,0.9,1.1c0,0,0.1,0,0.1,0c0.5,0,0.9-0.4,1-0.9
		C59.9,32.5,59.5,32,58.9,32z"/>
	<path class="st0" d="M58.6,35c-0.5-0.1-1.1,0.2-1.2,0.8c-0.1,0.5,0.2,1.1,0.8,1.2c0.1,0,0.1,0,0.2,0c0.5,0,0.9-0.3,1-0.8
		C59.5,35.6,59.1,35.1,58.6,35z"/>
	<path class="st0" d="M57.9,37.9c-0.5-0.2-1.1,0.1-1.3,0.7c-0.2,0.5,0.1,1.1,0.6,1.3c0.1,0,0.2,0,0.3,0c0.4,0,0.8-0.3,1-0.7
		C58.7,38.6,58.4,38.1,57.9,37.9z"/>
	<path class="st0" d="M56.9,40.7c-0.5-0.2-1.1,0-1.3,0.5c-0.2,0.5,0,1.1,0.5,1.3c0.1,0.1,0.3,0.1,0.4,0.1c0.4,0,0.8-0.2,0.9-0.6
		C57.7,41.5,57.4,41,56.9,40.7z"/>
	<path class="st0" d="M41.7,55.4c-0.5,0.2-0.7,0.8-0.5,1.3c0.2,0.4,0.5,0.6,0.9,0.6c0.1,0,0.3,0,0.4-0.1c0.5-0.2,0.7-0.8,0.5-1.3
		C42.8,55.4,42.2,55.2,41.7,55.4z"/>
	<path class="st0" d="M24.8,57.5c-0.5-0.1-1.1,0.3-1.2,0.8c-0.1,0.5,0.3,1.1,0.8,1.2c0.1,0,0.1,0,0.2,0c0.5,0,0.9-0.3,1-0.8
		C25.7,58.1,25.3,57.6,24.8,57.5z"/>
	<path class="st0" d="M27.6,57.9c-0.5,0-1,0.4-1.1,0.9c0,0.6,0.4,1,0.9,1.1c0,0,0,0,0,0c0,0,0.1,0,0.1,0c0.5,0,1-0.4,1-0.9
		C28.6,58.4,28.2,58,27.6,57.9z"/>
	<path class="st0" d="M22,56.8c-0.5-0.2-1.1,0.1-1.3,0.7c-0.1,0.5,0.1,1.1,0.7,1.3c0.1,0,0.2,0,0.3,0c0.4,0,0.8-0.3,1-0.7
		C22.8,57.5,22.5,57,22,56.8z"/>
	<path class="st0" d="M19.2,55.8c-0.5-0.2-1.1,0-1.3,0.5c-0.2,0.5,0,1.1,0.5,1.3c0.1,0,0.3,0.1,0.4,0.1c0.4,0,0.8-0.2,0.9-0.6
		C20,56.6,19.7,56.1,19.2,55.8z"/>
	<path class="st0" d="M33.4,57.8c-0.5,0.1-0.9,0.6-0.9,1.1c0.1,0.5,0.5,0.9,1,0.9c0,0,0.1,0,0.1,0c0,0,0,0,0,0
		c0.5-0.1,0.9-0.6,0.9-1.1C34.5,58.1,34,57.7,33.4,57.8z"/>
	<path class="st0" d="M39,56.5c-0.5,0.2-0.8,0.7-0.6,1.3c0.1,0.4,0.5,0.7,0.9,0.7c0.1,0,0.2,0,0.3,0c0.5-0.2,0.8-0.8,0.6-1.3
		C40.1,56.6,39.6,56.3,39,56.5z"/>
	<path class="st0" d="M36.3,57.3c-0.5,0.1-0.9,0.7-0.8,1.2c0.1,0.5,0.5,0.8,1,0.8c0.1,0,0.2,0,0.2,0c0.5-0.1,0.9-0.7,0.8-1.2
		C37.3,57.5,36.8,57.2,36.3,57.3z"/>
	<path class="st0" d="M30.5,58c-0.5,0-1,0.5-1,1s0.5,1,1,1c0,0,0,0,0,0c0.5,0,1-0.5,1-1C31.5,58.4,31.1,58,30.5,58z"/>
	<path class="st0" d="M16.6,54.6c-0.5-0.3-1.1-0.1-1.4,0.4c-0.3,0.5-0.1,1.1,0.4,1.3c0.1,0.1,0.3,0.1,0.5,0.1c0.4,0,0.7-0.2,0.9-0.5
		C17.3,55.5,17.1,54.9,16.6,54.6z"/>
</g>
</svg>
