<?xml version="1.0" encoding="utf-8"?>
<!-- Generator: Adobe Illustrator 21.1.0, SVG Export Plug-In . SVG Version: 6.00 Build 0)  -->
<svg version="1.1" id="Capa_1" xmlns="http://www.w3.org/2000/svg" xmlns:xlink="http://www.w3.org/1999/xlink" x="0px" y="0px"
	 viewBox="0 0 512 512" style="enable-background:new 0 0 512 512;" xml:space="preserve">
<style type="text/css">
	.st0{fill:#FFFFFF;}
</style>
<g>
	<g>
		<path class="st0" d="M502,246.3c5.5,0,10-4.5,10-10v-63.9c0-5.5-4.5-10-10-10l-166.1,0c0,0,0,0,0,0c-20.2,0-39.8,8.2-54,22.6
			l-15.6,15.8l-24-24c-9.3-9.3-21.6-14.4-34.8-14.4l-197.5,0c-2.7,0-5.2,1.1-7.1,2.9c-1.9,1.9-2.9,4.4-2.9,7.1v198.2
			c0,5.5,4.5,10,10,10h89.2c1.6,5.6,4.5,10.9,8.9,15.3c6.8,6.8,15.8,10.2,24.7,10.2c0.1,0,0.2,0,0.3,0c0,0.1,0,0.2,0,0.4
			c0,9.3,3.6,18.1,10.2,24.7s15.4,10.2,24.7,10.2c0,0,0,0,0,0c0.1,0,0.2,0,0.3,0c0,0.1,0,0.2,0,0.3c0,9.3,3.6,18.1,10.2,24.7
			s15.4,10.2,24.7,10.2c0,0,0,0,0,0c0.1,0,0.2,0,0.3,0c0,0.1,0,0.2,0,0.3c0,9.3,3.6,18.1,10.2,24.7s15.4,10.2,24.7,10.2c0,0,0,0,0,0
			c7.8,0,15.2-2.6,21.3-7.3c6.2,4.8,13.7,7.2,21.2,7.2c8.9,0,17.9-3.4,24.7-10.2c6.9-6.9,10.3-16,10.2-25.1c0.1,0,0.2,0,0.4,0
			c0,0,0,0,0,0c9.3,0,18.1-3.6,24.7-10.2c6.9-6.9,10.3-16,10.2-25.1c0.1,0,0.2,0,0.4,0c0,0,0,0,0,0c9.3,0,18.1-3.6,24.7-10.2
			c6.9-6.9,10.3-16,10.2-25.1c0.1,0,0.2,0,0.4,0c0,0,0,0,0,0c9.3,0,18.1-3.6,24.7-10.2c4.3-4.3,7.4-9.6,8.9-15.3H502
			c5.5,0,10-4.5,10-10V313c0-5.5-4.5-10-10-10s-10,4.5-10,10v47.6h-34V185c0-0.9-0.1-1.7-0.3-2.6l34.3,0v53.9
			C492,241.8,496.5,246.3,502,246.3z M132.9,386.1C132.9,386.1,132.9,386.1,132.9,386.1c-4,0-7.8-1.6-10.6-4.4
			c-2.8-2.8-4.4-6.6-4.4-10.6s1.6-7.8,4.4-10.6l21.2-21.2c2.9-2.9,6.7-4.4,10.6-4.4c3.8,0,7.7,1.5,10.6,4.4c5.8,5.8,5.8,15.3,0,21.2
			l-21.2,21.2C140.6,384.5,136.8,386.1,132.9,386.1z M168.1,421.4C168.1,421.4,168.1,421.4,168.1,421.4c-4,0-7.8-1.6-10.6-4.4
			c-2.8-2.8-4.4-6.6-4.4-10.6c0-4,1.6-7.8,4.4-10.6l21.2-21.2c2.8-2.8,6.6-4.4,10.6-4.4c0,0,0,0,0,0c4,0,7.8,1.6,10.6,4.4v0
			c5.8,5.8,5.8,15.3,0,21.2L178.7,417C175.9,419.8,172.1,421.4,168.1,421.4z M192.8,452.3c-5.8-5.8-5.8-15.3,0-21.2L214,410
			c2.8-2.8,6.6-4.4,10.6-4.4c0,0,0,0,0,0c4,0,7.8,1.6,10.6,4.4c5.8,5.8,5.8,15.3,0,21.2L214,452.3
			C208.2,458.2,198.7,458.2,192.8,452.3z M253,483.9C253,483.9,253,483.9,253,483.9C253,484,253,484,253,483.9l-3.7,3.7
			c-2.8,2.8-6.6,4.4-10.6,4.4c0,0,0,0,0,0c-4,0-7.8-1.6-10.6-4.4c-2.8-2.8-4.4-6.6-4.4-10.6s1.6-7.8,4.4-10.6l21.2-21.2
			c2.8-2.8,6.6-4.4,10.6-4.4c0,0,0,0,0,0c4,0,7.8,1.6,10.6,4.4v0c2.8,2.8,4.4,6.6,4.4,10.6c0,4-1.6,7.8-4.4,10.6L253,483.9z
			 M291.8,487.6c-4.6,4.6-11.5,5.6-17.1,2.9l9.9-9.8c3.8-3.7,6.5-8.2,8.3-13.1C297.7,473.4,297.3,482.1,291.8,487.6z M397.7,381.7
			c-2.8,2.8-6.6,4.4-10.6,4.4c0,0,0,0,0,0c-4,0-7.8-1.6-10.6-4.4l-63.2-63.2c-3.9-3.9-10.2-3.9-14.1,0c-2,2-2.9,4.5-2.9,7.1
			c0,2.6,1,5.1,2.9,7.1l63.2,63.2c5.8,5.8,5.8,15.3,0,21.2c-2.8,2.8-6.6,4.4-10.6,4.4c0,0,0,0,0,0c-4,0-7.8-1.6-10.6-4.4l-63.2-63.2
			c-3.9-3.9-10.2-3.9-14.1,0c-3.9,3.9-3.9,10.2,0,14.1l63.2,63.2c5.8,5.8,5.8,15.3,0,21.2c-2.8,2.8-6.6,4.4-10.6,4.4c0,0,0,0,0,0
			c-4,0-7.8-1.6-10.6-4.4l-20.1-20.1c-0.5-0.5-1-0.9-1.5-1.3c-6.6-6.4-15.2-10-24.5-10c0,0,0,0,0,0c-0.1,0-0.2,0-0.4,0
			c0.1-9.1-3.3-18.2-10.2-25.1v0c-6.6-6.6-15.4-10.2-24.7-10.2c0,0,0,0,0,0c-0.1,0-0.2,0-0.4,0c0.1-9.1-3.3-18.2-10.2-25.1
			c-6.6-6.6-15.4-10.2-24.7-10.2c0,0,0,0,0,0c-0.1,0-0.2,0-0.4,0c0.1-9.1-3.3-18.2-10.2-25.1v0c-13.6-13.6-35.8-13.6-49.4,0
			l-21.2,21.2c-4.1,4.1-7,9-8.6,14.1H74V248.5c0-5.5-4.5-10-10-10s-10,4.5-10,10v112.1H20V182.4l187.5,0c7.8,0,15.1,3,20.6,8.5
			l24,24L232,235.4c-14,14.2-13.9,37.2,0.3,51.2c7,6.9,16.2,10.5,25.5,10.5c6.4,0,12.8-1.7,18.6-5.1l32.9-19.7l88.4,88.4
			c2.4,2.4,3.9,5.5,4.3,8.9c0,0.4-0.1,0.7-0.1,1.1c0,0.5,0,1,0.1,1.5C401.9,375.7,400.4,379.1,397.7,381.7z M438,185v175.6h-17.5
			c-1.7-5.3-4.6-10.1-8.6-14.2L327,261.5l12.9-7.7h64.5c5.5,0,10-4.5,10-10c0-5.5-4.5-10-10-10h-67.3c-1.8,0-3.6,0.5-5.1,1.4
			l-65.9,39.5c-6.3,3.8-14.5,2.8-19.7-2.4c-6.3-6.3-6.4-16.6-0.1-22.9l49.8-50.4c10.4-10.6,24.9-16.6,39.8-16.6c0,0,0,0,0,0l102.5,0
			C438.1,183.2,438,184.1,438,185z"/>
	</g>
</g>
<g>
	<g>
		<path class="st0" d="M509,264.4c-1.9-1.9-4.4-2.9-7.1-2.9c-2.6,0-5.2,1.1-7.1,2.9c-1.9,1.9-2.9,4.4-2.9,7.1c0,2.6,1.1,5.2,2.9,7.1
			c1.9,1.9,4.4,2.9,7.1,2.9c2.6,0,5.2-1.1,7.1-2.9c1.9-1.9,2.9-4.4,2.9-7.1C512,268.8,510.9,266.3,509,264.4z"/>
	</g>
</g>
<g>
	<g>
		<path class="st0" d="M71.1,203.9c-1.9-1.9-4.4-2.9-7.1-2.9c-2.6,0-5.2,1.1-7.1,2.9c-1.9,1.9-2.9,4.4-2.9,7.1s1.1,5.2,2.9,7.1
			c1.9,1.9,4.4,2.9,7.1,2.9c2.6,0,5.2-1.1,7.1-2.9c1.9-1.9,2.9-4.4,2.9-7.1S72.9,205.8,71.1,203.9z"/>
	</g>
</g>
<g>
	<g>
		<path class="st0" d="M328,0H184c-16.5,0-30,13.5-30,30v74c0,16.5,13.5,30,30,30h34.9l30.1,30.1c2,2,4.5,2.9,7.1,2.9s5.1-1,7.1-2.9
			l30.1-30.1H328c16.5,0,30-13.5,30-30V30C358,13.5,344.5,0,328,0z M338,104c0,5.5-4.5,10-10,10h-39c-2.7,0-5.2,1.1-7.1,2.9
			L256,142.8l-25.9-25.9c-1.9-1.9-4.4-2.9-7.1-2.9h-39c-5.5,0-10-4.5-10-10V30c0-5.5,4.5-10,10-10h144c5.5,0,10,4.5,10,10L338,104
			L338,104z"/>
	</g>
</g>
<g>
	<g>
		<path class="st0" d="M216.1,59.8c-1.9-1.9-4.4-2.9-7.1-2.9c-2.6,0-5.2,1.1-7.1,2.9c-1.9,1.9-2.9,4.4-2.9,7.1
			c0,2.6,1.1,5.2,2.9,7.1c1.9,1.9,4.4,2.9,7.1,2.9s5.2-1.1,7.1-2.9c1.9-1.9,2.9-4.4,2.9-7.1C219,64.3,217.9,61.7,216.1,59.8z"/>
	</g>
</g>
<g>
	<g>
		<path class="st0" d="M263.1,59.8c-1.9-1.9-4.4-2.9-7.1-2.9s-5.2,1.1-7.1,2.9c-1.9,1.9-2.9,4.4-2.9,7.1c0,2.6,1.1,5.2,2.9,7.1
			c1.9,1.9,4.4,2.9,7.1,2.9s5.2-1.1,7.1-2.9c1.9-1.9,2.9-4.4,2.9-7.1C266,64.3,264.9,61.7,263.1,59.8z"/>
	</g>
</g>
<g>
	<g>
		<path class="st0" d="M310.1,59.8c-1.9-1.9-4.4-2.9-7.1-2.9c-2.6,0-5.2,1.1-7.1,2.9c-1.9,1.9-2.9,4.4-2.9,7.1
			c0,2.6,1.1,5.2,2.9,7.1s4.4,2.9,7.1,2.9c2.6,0,5.2-1.1,7.1-2.9c1.9-1.9,2.9-4.4,2.9-7.1C313,64.3,311.9,61.7,310.1,59.8z"/>
	</g>
</g>
</svg>
