<?xml version="1.0" encoding="utf-8"?>
<!-- Generator: Adobe Illustrator 21.1.0, SVG Export Plug-In . SVG Version: 6.00 Build 0)  -->
<svg version="1.1" id="Capa_1" xmlns="http://www.w3.org/2000/svg" xmlns:xlink="http://www.w3.org/1999/xlink" x="0px" y="0px"
	 viewBox="0 0 512 512" style="enable-background:new 0 0 512 512;" xml:space="preserve">
<style type="text/css">
	.st0{fill:#FFFFFF;}
</style>
<g>
	<g>
		<path class="st0" d="M482,0H126c-16.5,0-30,13.5-30,30v34c0,5.5,4.5,10,10,10s10-4.5,10-10V30c0-5.5,4.5-10,10-10h356
			c5.5,0,10,4.5,10,10v452c0,5.5-4.5,10-10,10H126c-5.5,0-10-4.5-10-10v-32.3c0-5.5-4.5-10-10-10s-10,4.5-10,10V482
			c0,16.5,13.5,30,30,30h356c16.5,0,30-13.5,30-30V30C512,13.5,498.5,0,482,0z"/>
	</g>
</g>
<g>
	<g>
		<path class="st0" d="M433.9,386h-240c-5.5,0-10,4.5-10,10s4.5,10,10,10h240c5.5,0,10-4.5,10-10S439.4,386,433.9,386z"/>
	</g>
</g>
<g>
	<g>
		<path class="st0" d="M441,440.9c-1.9-1.9-4.4-2.9-7.1-2.9c-2.6,0-5.2,1.1-7.1,2.9c-1.9,1.9-2.9,4.4-2.9,7.1s1.1,5.2,2.9,7.1
			c1.9,1.9,4.4,2.9,7.1,2.9c2.6,0,5.2-1.1,7.1-2.9c1.9-1.9,2.9-4.4,2.9-7.1S442.8,442.8,441,440.9z"/>
	</g>
</g>
<g>
	<g>
		<path class="st0" d="M393,438H193.9c-5.5,0-10,4.5-10,10s4.5,10,10,10H393c5.5,0,10-4.5,10-10S398.5,438,393,438z"/>
	</g>
</g>
<g>
	<g>
		<path class="st0" d="M264,87.8c-59.5,0-107.9,48.4-107.9,107.9c0,30.9,13,58.8,33.9,78.5c0.4,0.4,0.7,0.7,1.2,1.1
			c19.2,17.6,44.8,28.4,72.9,28.4s53.6-10.8,72.9-28.4c0.4-0.3,0.8-0.7,1.2-1.1c20.9-19.7,33.9-47.6,33.9-78.5
			C371.9,136.2,323.5,87.8,264,87.8z M264,283.6c-20.5,0-39.5-7.1-54.4-18.9c10.6-20.1,31.3-32.7,54.4-32.7s43.8,12.6,54.4,32.7
			C303.4,276.5,284.5,283.6,264,283.6z M242.9,190.9v-7.8c0-11.6,9.4-21,21-21c11.6,0,21,9.4,21,21v7.8c0,11.6-9.4,21-21,21
			S242.9,202.5,242.9,190.9z M333,250c-9.2-14.6-22.5-25.7-38.2-32.1c6.3-7.2,10.2-16.7,10.2-27v-7.8c0-22.6-18.4-41-41-41
			s-41,18.4-41,41v7.8c0,10.3,3.9,19.8,10.2,27c-15.7,6.4-29.1,17.5-38.2,32.1c-11.8-15-18.9-33.8-18.9-54.3
			c0-48.5,39.4-87.9,87.9-87.9c48.5,0,87.9,39.4,87.9,87.9C351.9,216.2,344.8,235.1,333,250z"/>
	</g>
</g>
<g>
	<g>
		<path class="st0" d="M264,40c-85.8,0-155.7,69.8-155.7,155.7c0,49.6,23.3,93.9,59.6,122.4L51.9,434.2c-7.3,7.3-19.1,7.3-26.4,0
			C21.9,430.7,20,426,20,421s1.9-9.7,5.5-13.2l59.4-59.4c3.9-3.9,3.9-10.2,0-14.1c-3.9-3.9-10.2-3.9-14.1,0l-59.4,59.4
			C4,401,0,410.7,0,421c0,10.3,4,20,11.3,27.3c7.5,7.5,17.4,11.3,27.3,11.3s19.8-3.8,27.3-11.3l118.7-118.7
			c23.2,13.8,50.3,21.7,79.3,21.7c85.8,0,155.7-69.8,155.7-155.7S349.8,40,264,40z M264,331.4c-74.8,0-135.7-60.9-135.7-135.7
			C128.3,120.9,189.2,60,264,60s135.7,60.9,135.7,135.7S338.8,331.4,264,331.4z"/>
	</g>
</g>
<g>
	<g>
		<path class="st0" d="M116.3,302.8c-1.9-1.9-4.4-2.9-7.1-2.9c-2.6,0-5.2,1.1-7.1,2.9c-1.9,1.9-2.9,4.4-2.9,7.1
			c0,2.6,1.1,5.2,2.9,7.1c1.9,1.9,4.4,2.9,7.1,2.9c2.6,0,5.2-1.1,7.1-2.9c1.9-1.9,2.9-4.4,2.9-7.1
			C119.2,307.3,118.2,304.7,116.3,302.8z"/>
	</g>
</g>
</svg>
