<?xml version="1.0" encoding="utf-8"?>
<!-- Generator: Adobe Illustrator 21.1.0, SVG Export Plug-In . SVG Version: 6.00 Build 0)  -->
<svg version="1.1" id="Layer_1" xmlns="http://www.w3.org/2000/svg" xmlns:xlink="http://www.w3.org/1999/xlink" x="0px" y="0px"
	 viewBox="0 0 512 512" style="enable-background:new 0 0 512 512;" xml:space="preserve">
<style type="text/css">
	.st0{fill:#FFFFFF;}
</style>
<g>
	<g>
		<path class="st0" d="M366,201.6h-18.3c-4.7,0-8.6,3.8-8.6,8.6c0,4.7,3.8,8.6,8.6,8.6H366c4.7,0,8.6-3.8,8.6-8.6
			C374.5,205.4,370.7,201.6,366,201.6z"/>
	</g>
</g>
<g>
	<g>
		<path class="st0" d="M368.2,272.6c-3.4-4.3-8.5-6.8-14-6.8H157.8c-5.5,0-10.6,2.5-14,6.8c-3.4,4.3-4.6,9.9-3.2,15.2l4.6,18.3
			c2,7.9,9.1,13.4,17.2,13.4h187.3c8.2,0,15.2-5.5,17.2-13.4l4.6-18.3C372.8,282.5,371.6,276.9,368.2,272.6z M354.8,283.6l-4.6,18.3
			c-0.1,0.3-0.3,0.4-0.6,0.4H162.4c-0.3,0-0.5-0.2-0.6-0.4l-4.6-18.3c0-0.1-0.1-0.3,0.1-0.5s0.4-0.2,0.5-0.2h196.4
			c0.1,0,0.3,0,0.5,0.2S354.8,283.5,354.8,283.6z"/>
	</g>
</g>
<g>
	<g>
		<path class="st0" d="M485.1,218.8c14.8,0,26.9-12.1,26.9-26.9s-12.1-26.9-26.9-26.9h-9.2c-13.4,0-24.5,9.8-26.6,22.6l-22.9-63
			c-5.2-14.2-18.8-23.8-33.9-23.8h-65.3l-4.8-24.2C319.8,64.1,308.7,55,296,55H216c-12.8,0-23.9,9.1-26.4,21.6l-4.8,24.2h-65.3
			c-15.1,0-28.7,9.5-33.9,23.8l-22.9,63c-2.1-12.8-13.2-22.6-26.6-22.6h-9.2C12.1,164.9,0,177,0,191.9s12.1,26.9,26.9,26.9h9.2
			c4.2,0,8.2-1,11.8-2.7l-19.6,24.6c-6.4,8-9.9,18-9.9,28.3v170.4c0,9.8,8,17.8,17.8,17.8h27.5c9.8,0,17.8-8,17.8-17.8V402h349.4
			v37.2c0,9.8,8,17.8,17.8,17.8h27.5c9.8,0,17.8-8,17.8-17.8V268.9c0-10.2-3.5-20.3-9.9-28.3L464.1,216c3.6,1.7,7.6,2.7,11.8,2.7
			H485.1z M36.1,201.6h-9.2c-5.4,0-9.7-4.4-9.7-9.7s4.4-9.7,9.7-9.7h9.2c5.4,0,9.7,4.4,9.7,9.7C45.8,197.2,41.4,201.6,36.1,201.6z
			 M206.5,80c0.9-4.5,4.9-7.8,9.5-7.8H296c4.6,0,8.6,3.3,9.5,7.8l4.2,20.8H202.3L206.5,80z M64.1,439.3c0,0.3-0.3,0.6-0.6,0.6H36.1
			c-0.3,0-0.6-0.3-0.6-0.6v-42.6c5.5,3.4,12,5.4,18.9,5.4h9.7L64.1,439.3L64.1,439.3z M357.4,384.9H154.6V366c0-0.3,0.3-0.6,0.6-0.6
			h201.6c0.3,0,0.6,0.3,0.6,0.6L357.4,384.9L357.4,384.9z M476.5,439.3c0,0.3-0.3,0.6-0.6,0.6h-27.5c-0.3,0-0.6-0.3-0.6-0.6V402h9.7
			c6.9,0,13.4-2,18.9-5.4L476.5,439.3L476.5,439.3z M470.3,251.3c4,5,6.1,11.2,6.1,17.5V366c0,10.4-8.5,18.9-18.9,18.9h-83V366
			c0-9.8-8-17.8-17.8-17.8H155.2c-9.8,0-17.8,8-17.8,17.8v18.9h-83c-10.4,0-18.9-8.5-18.9-18.9v-97.1c0-6.3,2.2-12.6,6.2-17.5
			l26-32.6H311c4.7,0,8.6-3.8,8.6-8.6c0-4.7-3.8-8.6-8.6-8.6H75.8l25.9-71.2c2.7-7.4,9.8-12.4,17.8-12.4h273c7.9,0,15.1,5,17.8,12.4
			l25.9,71.2h-33.6c-4.7,0-8.6,3.8-8.6,8.6c0,4.7,3.8,8.6,8.6,8.6h41.7L470.3,251.3z M466.2,191.9c0-5.4,4.4-9.7,9.7-9.7h9.2
			c5.4,0,9.7,4.4,9.7,9.7c0,5.4-4.4,9.7-9.7,9.7h-9.2C470.6,201.6,466.2,197.2,466.2,191.9z"/>
	</g>
</g>
<g>
	<g>
		<path class="st0" d="M91.1,329.9c-9.8,0-17.8,8-17.8,17.8s8,17.8,17.8,17.8s17.8-8,17.8-17.8S100.8,329.9,91.1,329.9z"/>
	</g>
</g>
<g>
	<g>
		<path class="st0" d="M420.9,329.9c-9.8,0-17.8,8-17.8,17.8s8,17.8,17.8,17.8s17.8-8,17.8-17.8S430.7,329.9,420.9,329.9z"/>
	</g>
</g>
<g>
	<g>
		<path class="st0" d="M86.5,256.6c-17.4,0-31.5,14.1-31.5,31.5s14.1,31.5,31.5,31.5s31.5-14.1,31.5-31.5S103.8,256.6,86.5,256.6z
			 M86.5,302.4c-7.9,0-14.3-6.4-14.3-14.3s6.4-14.3,14.3-14.3s14.3,6.4,14.3,14.3S94.4,302.4,86.5,302.4z"/>
	</g>
</g>
<g>
	<g>
		<path class="st0" d="M425.5,256.6c-17.4,0-31.5,14.1-31.5,31.5s14.1,31.5,31.5,31.5s31.5-14.1,31.5-31.5S442.9,256.6,425.5,256.6z
			 M425.5,302.4c-7.9,0-14.3-6.4-14.3-14.3s6.4-14.3,14.3-14.3c7.9,0,14.3,6.4,14.3,14.3S433.4,302.4,425.5,302.4z"/>
	</g>
</g>
</svg>
