<?xml version="1.0" encoding="utf-8"?>
<!-- Generator: Adobe Illustrator 21.1.0, SVG Export Plug-In . SVG Version: 6.00 Build 0)  -->
<svg version="1.1" id="Layer_1" xmlns="http://www.w3.org/2000/svg" xmlns:xlink="http://www.w3.org/1999/xlink" x="0px" y="0px"
	 viewBox="0 0 430.1 430.1" style="enable-background:new 0 0 430.1 430.1;" xml:space="preserve">
<style type="text/css">
	.st0{fill:#A4A4A4;}
</style>
<g>
	<g>
		<path class="st0" d="M428.5,236.6c-11.3-31.1-29.1-59-52.9-82.7c-31.3-31.3-70.2-52.3-112.4-61.4c8-7.1,13-17.5,13-28.9
			c0-21.4-17.4-38.9-38.9-38.9c-8.2,0-15.9,2.6-22.2,7c-6.5-4.5-14.2-7-22.2-7c-21.4,0-38.9,17.4-38.9,38.9c0,11.5,5,21.9,13,29
			c-12.2,2.7-24.3,6.3-36.1,11c-27.4,10.9-52.1,26.8-73.3,47.2c-25.4,24.4-44.2,53.3-56,85.9c-3.1,8.5-1.8,18.1,3.4,25.5
			c4.1,5.9,10.4,9.9,17.3,11.4c-2.8,13.2-4.3,26.8-4.3,40.8c0,50.2,40.8,91,91,91h212c50.2,0,91-40.8,91-91c0-14-1.5-27.6-4.3-40.8
			c6.9-1.4,13.1-5.5,17.2-11.4C430.3,254.8,431.6,245.2,428.5,236.6z M237.3,39.7c13.2,0,23.9,10.7,23.9,23.9s-10.7,23.9-23.9,23.9
			s-23.9-10.7-23.9-23.9C213.4,50.4,224.1,39.7,237.3,39.7z M192.9,39.7c4.1,0,8.1,1.1,11.6,3c-3.8,6-6.1,13.2-6.1,20.8
			c0,7.7,2.2,14.8,6.1,20.8c-3.5,2-7.5,3-11.6,3c-13.2,0-23.9-10.7-23.9-23.9S179.7,39.7,192.9,39.7z M321.1,390.4h-212
			c-41.9,0-76-34.1-76-76c0-100.4,81.6-182,182-182s182,81.6,182,182C397.1,356.3,363,390.4,321.1,390.4z M412.8,253.7
			c-2.1,3-5.1,4.8-8.6,5.4c-24-81.8-99.7-141.7-189.1-141.7S50,177.3,26,259.1c-3.5-0.5-6.6-2.4-8.7-5.4c-2.5-3.5-3-7.8-1.6-11.8
			c11-30.4,28.7-57.4,52.4-80.2c39.5-38,93.5-59.6,148.4-59.2c56.1,0.4,108.8,22.4,148.4,62.1c22.2,22.2,38.8,48.2,49.4,77.2
			C415.8,245.8,415.3,250.2,412.8,253.7z"/>
	</g>
</g>
</svg>
